<svg xmlns="http://www.w3.org/2000/svg" viewBox="0 0 120 120"><circle fill="#3f3f46" cx="60" cy="60" r="60"/><path fill="#212121" d="M80.7 100.1c-6.2 3.3-13.2 5.1-20.7 5.1-24.8 0-44.8-20.2-44.8-45.2s20-45.2 44.8-45.2S104.8 35 104.8 60c0 2.9-.3 5.8-.8 8.5-2.4 10.2-9 8.6-9 8.6s-9-4.3-15.7.9c-4.3 3.3-1.3 14.5 1.4 22.1z"/><circle fill="#2196F3" cx="39.1" cy="74" r="10.7"/><circle fill="#8BC34A" cx="35.6" cy="46.8" r="10.7"/><circle fill="#9C27B0" cx="60" cy="32.2" r="10.7"/><circle fill="#607D8B" cx="84.5" cy="45.8" r="10.7"/><circle fill="#E91E63" cx="63.4" cy="88.4" r="5.7"/></svg>
