<svg xmlns="http://www.w3.org/2000/svg" viewBox="0 0 192 192"><g><path fill="#212121" d="M26 10h104c9 0 16 7 16 16v104c0 9-7 16-16 16H26c-9 0-16-7-16-16V26c0-9 7-16 16-16z"/><path fill="#8bc34a" d="M34 18h104c9 0 16 7 16 16v104c0 9-7 16-16 16H34c-9 0-16-7-16-16V34c0-9 7-16 16-16z"/><path fill="#673ab7" d="M42 26h104c9 0 16 7 16 16v104c0 9-7 16-16 16H42c-9 0-16-7-16-16V42c0-9 7-16 16-16z"/><path fill="#ff9800" d="M50 34h104c9 0 16 7 16 16v104c0 9-7 16-16 16H50c-9 0-16-7-16-16V50c0-9 7-16 16-16z"/><path fill="#03a9f4" d="M58 42h104c9 0 16 7 16 16v104c0 9-7 16-16 16H58c-9 0-16-7-16-16V58c0-9 7-16 16-16z"/><path fill="#e91e63" d="M66 50h104c9 0 16 7 16 16v104c0 9-7 16-16 16H66c-9 0-16-7-16-16V66c0-9 7-16 16-16z"/><path fill="#CCC" d="M153 62h7c8 0 14 6 14 14v84c0 8-6 14-14 14h-7V62z"/><path fill="#DDD" d="M153 62l-50 50 5 5c6 5 14 5 20 0l25-25 20-21c-2-5-7-9-13-9h-7z"/><path fill="#EEE" d="M68 77l15-15 50 50-5 5c-6 5-14 5-20 0L68 77z"/><path fill="#FFF" d="M76 62h7v112h-7c-8 0-14-6-14-14V76c0-8 6-14 14-14z"/></g></svg>