<svg xmlns="http://www.w3.org/2000/svg" xmlns:xlink="http://www.w3.org/1999/xlink" viewBox="-1 -1 232 24" preserveAspectRatio="xMinYMid">	<style type="text/css">
	@keyframes spin {
		from { transform: rotate(0deg); }
		to { transform: rotate(360deg); }
	}
	@keyframes spin-inverse {
		from { transform: rotate(360deg); }
		to { transform: rotate(0deg); }
	}
	g > g {
		animation-iteration-count: infinite;
		animation-timing-function: linear;
		transform-origin: 50%;
	}
	#bg, #mg, #sg {
		animation-name: spin;
		animation-duration: 10s;
	}
	#xg {
		animation-name: spin-inverse;
		animation-duration: 5s;
	}
	</style>

	<defs>
		<path id="b" d="M2.344 2.349A8 8 0 0 0 0 7.999a8 8 0 0 0 2.344 5.651v-11.3z" />
		<path id="m" d="M2.344 2.349h5.657v5.657H2.344z"/>
		<path id="s" d="M2.344 2.35a5.658 5.658 0 0 1 5.657 5.657H2.344z"/>
		<path id="x" d="M8 3.757a4.243 4.243 0 0 0-4.242 4.243H8v-4.243z"/>
	</defs>

	<circle fill="#212121" cx="8" cy="8" r="9" transform="matrix(1.33333 0 0 1.33333 .333 .333)"/>

	<g transform="matrix(1.33333 0 0 1.33333 .333 .333) rotate(45 8 8)">
		<g id="bg">
			<use xlink:href="#b" fill="#f44336" />
			<use xlink:href="#b" fill="#fff" transform="rotate(90 8 8)" />
			<use xlink:href="#b" fill="#009688" transform="rotate(180 8 8)" />
			<use xlink:href="#b" fill="#3f51b5" transform="rotate(270 8 8)" />
		</g>

		<g id="mg">
			<use xlink:href="#m" fill="#8bc34a" />
			<use xlink:href="#m" fill="#9c27b0" transform="rotate(90 8 8)" />
			<use xlink:href="#m" fill="#607d8b" transform="rotate(180 8 8)" />
			<use xlink:href="#m" fill="#03a9f4" transform="rotate(270 8 8)" />
		</g>

		<g id="sg">
			<use xlink:href="#s" fill="#ffc107" />
			<use xlink:href="#s" fill="#00bcd4" transform="scale(-1 1) translate(-16)" />
			<use xlink:href="#s" fill="#ff5722" transform="scale(-1 -1) translate(-16 -16)" />
			<use xlink:href="#s" fill="#cddc39" transform="scale(1 -1) translate(0 -16)" />
		</g>

		<g id="xg">
			<use xlink:href="#x" fill="#e91e63" />
			<use xlink:href="#x" fill="#ffeb3b" transform="rotate(90 8 8)" />
			<use xlink:href="#x" fill="#ff9800" transform="rotate(180 8 8)" />
			<use xlink:href="#x" fill="#9e9e9e" transform="rotate(270 8 8)" />
		</g>

		<circle fill="#2196f3" cx="8" cy="8" r="2.121"/>
	</g><path d="M27 23V.25h6.366q2.8 0 5.022 1.281 2.22 1.266 3.456 3.64 1.252 2.376 1.252 5.407v2.094q0 3.047-1.236 5.406-1.236 2.36-3.488 3.64Q36.135 23 33.226 23zm1.924-21.11v19.485h4.317q3.598 0 5.772-2.375 2.174-2.39 2.174-6.453v-2q0-3.922-2.143-6.281-2.142-2.36-5.646-2.375zm29.282 20.797q-.281-.796-.36-2.359-.985 1.281-2.518 1.984-1.517.688-3.222.688-2.44 0-3.958-1.36-1.501-1.359-1.501-3.437 0-2.469 2.049-3.906 2.064-1.438 5.74-1.438h3.395v-1.922q0-1.812-1.126-2.843-1.111-1.047-3.254-1.047-1.955 0-3.238 1t-1.283 2.406l-1.877-.015q0-2.016 1.877-3.485 1.877-1.484 4.615-1.484 2.831 0 4.458 1.422 1.642 1.406 1.69 3.937v8q0 2.453.515 3.672v.188zm-5.881-1.343q1.877 0 3.347-.907 1.486-.906 2.159-2.421v-3.72h-3.348q-2.8.032-4.38 1.032-1.58.984-1.58 2.719 0 1.422 1.049 2.36 1.063.937 2.753.937zM72.488 7.687q-.595-.109-1.268-.109-1.751 0-2.972.984-1.204.97-1.72 2.829V23h-1.862V6.094h1.83l.032 2.687q1.486-3 4.77-3 .783 0 1.236.203zm6.96 6.797l-2.143 2.063V23h-1.877V-1h1.877v15.36l1.768-1.907 6.476-6.36h2.362l-7.18 7.126L88.536 23H86.3zm19.099-3.359h6.93v1.75h-6.93v7.531h-1.892v-7.531h-6.789v-1.75h6.789V3.844h1.892zM120.024.25l8.4 20.078L136.855.25h2.565V23h-1.924v-9.906l.157-10.157L129.175 23h-1.486l-8.447-19.984.156 10.015V23h-1.924V.25zm35.414 22.437q-.282-.796-.36-2.359-.985 1.281-2.518 1.984-1.517.688-3.222.688-2.44 0-3.958-1.36-1.502-1.359-1.502-3.437 0-2.469 2.05-3.906 2.064-1.438 5.74-1.438h3.395v-1.922q0-1.812-1.127-2.843-1.11-1.047-3.253-1.047-1.955 0-3.238 1t-1.283 2.406l-1.877-.015q0-2.016 1.877-3.485 1.877-1.484 4.615-1.484 2.83 0 4.458 1.422 1.642 1.406 1.69 3.937v8q0 2.453.515 3.672v.188zm-5.881-1.343q1.877 0 3.347-.907 1.486-.906 2.159-2.421v-3.72h-3.348q-2.8.032-4.38 1.032-1.58.984-1.58 2.719 0 1.422 1.049 2.36 1.063.937 2.753.937zm15.251-19.891v4.328h3.504v1.531h-3.504v11.266q0 1.406.5 2.094.516.687 1.705.687.47 0 1.518-.156l.078 1.531q-.735.266-2.002.266-1.924 0-2.8-1.11-.876-1.124-.876-3.296V7.312h-3.113v-1.53h3.113v-4.33zM178.776 23q-2.158 0-3.91-1.063-1.737-1.062-2.706-2.953-.97-1.906-.97-4.265v-.672q0-2.438.938-4.39.954-1.954 2.644-3.063 1.69-1.125 3.66-1.125 3.082 0 4.88 2.11 1.815 2.093 1.815 5.733v1.047H173.05v.36q0 2.875 1.643 4.797 1.658 1.906 4.16 1.906 1.502 0 2.644-.547 1.157-.547 2.096-1.75l1.173.89Q182.702 23 178.777 23zm-.344-15.938q-2.112 0-3.566 1.547-1.44 1.547-1.752 4.157h10.152v-.204q-.079-2.437-1.393-3.968-1.314-1.532-3.44-1.532zm18.192.625q-.594-.109-1.267-.109-1.752 0-2.972.984-1.205.97-1.72 2.829V23h-1.862V6.094h1.83l.031 2.687q1.486-3 4.771-3 .782 0 1.236.203zM201.66 23h-1.876V6.094h1.877zm-2.205-21.797q0-.531.344-.89.344-.376.939-.376.594 0 .938.375.36.36.36.891t-.36.89q-.344.36-.938.36-.595 0-.939-.36-.344-.359-.344-.89zm17.989 21.484q-.282-.796-.36-2.359-.986 1.281-2.518 1.984-1.518.688-3.223.688-2.44 0-3.957-1.36-1.502-1.359-1.502-3.437 0-2.469 2.05-3.906 2.064-1.438 5.74-1.438h3.394v-1.922q0-1.812-1.126-2.843-1.11-1.047-3.254-1.047-1.955 0-3.237 1-1.283 1-1.283 2.406l-1.877-.015q0-2.016 1.877-3.485 1.877-1.484 4.614-1.484 2.832 0 4.458 1.422 1.643 1.406 1.69 3.937v8q0 2.453.516 3.672v.188zm-5.882-1.343q1.877 0 3.348-.907 1.486-.906 2.158-2.421v-3.72h-3.347q-2.8.032-4.38 1.032-1.58.984-1.58 2.719 0 1.422 1.048 2.36 1.064.937 2.753.937zM226 23h-1.877V-1H226z" fill="#212121" stroke="#FFF" stroke-width=".1"/></svg>
