<svg xmlns="http://www.w3.org/2000/svg" viewBox="0 0 1280 192"><g><path d="M26 10h104c9 0 16 7 16 16v104c0 9-7 16-16 16H26c-9 0-16-7-16-16V26c0-9 7-16 16-16z" fill="#212121"/><path d="M34 18h104c9 0 16 7 16 16v104c0 9-7 16-16 16H34c-9 0-16-7-16-16V34c0-9 7-16 16-16z" fill="#8bc34a"/><path d="M42 26h104c9 0 16 7 16 16v104c0 9-7 16-16 16H42c-9 0-16-7-16-16V42c0-9 7-16 16-16z" fill="#673ab7"/><path d="M50 34h104c9 0 16 7 16 16v104c0 9-7 16-16 16H50c-9 0-16-7-16-16V50c0-9 7-16 16-16z" fill="#ff9800"/><path d="M58 42h104c9 0 16 7 16 16v104c0 9-7 16-16 16H58c-9 0-16-7-16-16V58c0-9 7-16 16-16z" fill="#03a9f4"/><path d="M66 50h104c9 0 16 7 16 16v104c0 9-7 16-16 16H66c-9 0-16-7-16-16V66c0-9 7-16 16-16z" fill="#e91e63"/><path d="M153 62h7c8 0 14 6 14 14v84c0 8-6 14-14 14h-7V62z" fill="#CCC"/><path d="M153 62l-50 50 5 5c6 5 14 5 20 0l25-25 20-21c-2-5-7-9-13-9h-7z" fill="#DDD"/><path d="M68 77l15-15 50 50-5 5c-6 5-14 5-20 0L68 77z" fill="#EEE"/><path d="M76 62h7v112h-7c-8 0-14-6-14-14V76c0-8 6-14 14-14z" fill="#FFF"/><defs><filter id="b" x="-200%" y="-200%" width="400%" height="400%"><feGaussianBlur xmlns="http://www.w3.org/2000/svg" stdDeviation="1"/></filter></defs><path d="M681 62h20l38 95 38-95h19v116h-15v-45l2-49-39 94h-11l-38-93 1 48v45h-15V62zm209 116h-16l-2-9q-10 11-24 11-13 0-21-7t-8-19q0-13 10-20 10-8 29-8h14v-7q0-7-5-12-4-5-13-5-8 0-14 4-5 4-5 10h-15q0-6 5-12 4-6 12-10 8-3 18-3 14 0 23 7 8 8 9 21v39q0 12 3 19v1zm-40-11q7 0 13-3 6-4 9-10v-17h-12q-27 0-27 15 0 7 5 11t12 4zm65-96h15v21h16v12h-16v53q0 5 2 8 2 2 7 2l7-1v12l-11 2q-10 0-15-6t-5-17v-53h-16V92h16V71zm84 109q-18 0-29-12-11-11-11-30v-3q0-13 5-23t14-16q9-5 19-5 17 0 26 11t9 31v6h-58q0 13 7 21t18 8q8 0 14-3 5-3 9-9l9 7q-11 17-32 17zm-2-77q-9 0-15 6-6 7-8 18h44v-1q-1-11-7-17-5-6-14-6zm94-11v13h-7q-15 0-20 12v61h-15V92h15v10q7-11 20-11l7 1zm29 0v86h-14V92h14zm-15-23l2-6q2-2 6-2t7 2l2 6q0 4-2 6-3 3-7 3t-6-3q-2-2-2-6zm108 109h-16l-2-9q-10 11-24 11-13 0-21-7t-8-19q0-13 10-20 10-8 29-8h14v-7q0-7-5-12-4-5-13-5-8 0-14 4-5 4-5 10h-15q0-6 5-12 4-6 12-10 8-3 17-3 15 0 24 7 8 8 9 21v39q0 12 3 19v1zm-40-11q7 0 13-3 6-4 9-10v-17h-12q-27 0-27 15 0 7 5 11 4 4 12 4zm76-111v122h-15V56h15zM247 178h-32V62h33q15 0 26 7 12 7 18 19 7 12 7 28v8q0 16-7 29-6 12-18 19-11 6-27 6zm1-103h-18v91h16q18 0 28-11t10-31v-7q0-20-10-31-9-11-26-11zm140 103h-15q-2-2-2-9-11 11-25 11-13 0-21-7t-8-19q0-13 10-20 11-8 29-8h14v-7q0-7-4-12-5-5-14-5-8 0-13 4t-5 10h-15q0-6 4-12 5-6 13-10 8-3 17-3 15 0 23 7 9 8 9 21v39q0 12 3 19v1zm-40-11q7 0 13-3 7-4 9-10v-17h-11q-27 0-27 15 0 7 4 11 5 4 12 4zm102-75v13h-7q-15 0-20 12v61h-15V92h15v10q7-11 20-11l7 1zm67 86l-30-40-9 10v30h-15V56h15v74l8-9 27-29h18l-34 36 38 50h-18zm71-96v34h32v14h-32v37h-15v-37h-32v-14h32V82h15z" fill-rule="evenodd" fill="#FFF" vector-effect="non-scaling-stroke" stroke-width="4" stroke="#FFF" stroke-linejoin="round" stroke-linecap="round" stroke-miterlimit="3" filter="url(#b)"/><path d="M681 62h20l38 95 38-95h19v116h-15v-45l2-49-39 94h-11l-38-93 1 48v45h-15V62zm209 116h-16l-2-9q-10 11-24 11-13 0-21-7t-8-19q0-13 10-20 10-8 29-8h14v-7q0-7-5-12-4-5-13-5-8 0-14 4-5 4-5 10h-15q0-6 5-12 4-6 12-10 8-3 18-3 14 0 23 7 8 8 9 21v39q0 12 3 19v1zm-40-11q7 0 13-3 6-4 9-10v-17h-12q-27 0-27 15 0 7 5 11t12 4zm65-96h15v21h16v12h-16v53q0 5 2 8 2 2 7 2l7-1v12l-11 2q-10 0-15-6t-5-17v-53h-16V92h16V71zm84 109q-18 0-29-12-11-11-11-30v-3q0-13 5-23t14-16q9-5 19-5 17 0 26 11t9 31v6h-58q0 13 7 21t18 8q8 0 14-3 5-3 9-9l9 7q-11 17-32 17zm-2-77q-9 0-15 6-6 7-8 18h44v-1q-1-11-7-17-5-6-14-6zm94-11v13h-7q-15 0-20 12v61h-15V92h15v10q7-11 20-11l7 1zm29 0v86h-14V92h14zm-15-23l2-6q2-2 6-2t7 2l2 6q0 4-2 6-3 3-7 3t-6-3q-2-2-2-6zm108 109h-16l-2-9q-10 11-24 11-13 0-21-7t-8-19q0-13 10-20 10-8 29-8h14v-7q0-7-5-12-4-5-13-5-8 0-14 4-5 4-5 10h-15q0-6 5-12 4-6 12-10 8-3 17-3 15 0 24 7 8 8 9 21v39q0 12 3 19v1zm-40-11q7 0 13-3 6-4 9-10v-17h-12q-27 0-27 15 0 7 5 11 4 4 12 4zm76-111v122h-15V56h15zM247 178h-32V62h33q15 0 26 7 12 7 18 19 7 12 7 28v8q0 16-7 29-6 12-18 19-11 6-27 6zm1-103h-18v91h16q18 0 28-11t10-31v-7q0-20-10-31-9-11-26-11zm140 103h-15q-2-2-2-9-11 11-25 11-13 0-21-7t-8-19q0-13 10-20 11-8 29-8h14v-7q0-7-4-12-5-5-14-5-8 0-13 4t-5 10h-15q0-6 4-12 5-6 13-10 8-3 17-3 15 0 23 7 9 8 9 21v39q0 12 3 19v1zm-40-11q7 0 13-3 7-4 9-10v-17h-11q-27 0-27 15 0 7 4 11 5 4 12 4zm102-75v13h-7q-15 0-20 12v61h-15V92h15v10q7-11 20-11l7 1zm67 86l-30-40-9 10v30h-15V56h15v74l8-9 27-29h18l-34 36 38 50h-18zm71-96v34h32v14h-32v37h-15v-37h-32v-14h32V82h15z" fill-rule="evenodd" fill="#212121"/></g></svg>